<svg xmlns="http://www.w3.org/2000/svg" xmlns:xlink="http://www.w3.org/1999/xlink"  zoomAndPan="magnify" viewBox="40 0 305 375"  preserveAspectRatio="xMidYMid meet" version="1.0">
  <!-- TODO CODEX: viewBox non resserre pour eviter de casser l'animation; recadrer quand un outil de mesure precis est disponible. --><defs><g/></defs><g fill="#1a2332" fill-opacity="1"><g transform="translate(43.220835, 195.749987)"><g><path class="hero-signature-path" fill="none" stroke="#1a2332" stroke-width="1.4" stroke-linecap="round" stroke-linejoin="round" d="M 28.703125 -22.390625 C 28.703125 -21.085938 27.785156 -19.828125 25.953125 -18.609375 C 24.191406 -17.398438 22.332031 -16.769531 20.375 -16.71875 C 18.800781 -16.71875 18.015625 -17.234375 18.015625 -18.265625 C 18.015625 -18.921875 18.382812 -19.3125 19.125 -19.4375 C 19.726562 -19.5 20.03125 -19.382812 20.03125 -19.09375 C 20.03125 -19.050781 20.03125 -19 20.03125 -18.9375 C 20.03125 -18.875 20.007812 -18.773438 19.96875 -18.640625 C 19.945312 -18.535156 19.9375 -18.4375 19.9375 -18.34375 C 19.9375 -18.25 19.9375 -18.179688 19.9375 -18.140625 C 20 -17.765625 20.453125 -17.566406 21.296875 -17.546875 C 22.804688 -17.546875 24.203125 -18 25.484375 -18.90625 C 26.765625 -19.84375 27.40625 -20.796875 27.40625 -21.765625 C 27.40625 -22.546875 26.960938 -23.195312 26.078125 -23.71875 C 25.222656 -24.195312 24.101562 -24.445312 22.71875 -24.46875 C 21.394531 -24.46875 20.0625 -24.273438 18.71875 -23.890625 C 17.382812 -23.503906 16.015625 -22.898438 14.609375 -22.078125 C 11.898438 -20.441406 10.535156 -18.859375 10.515625 -17.328125 C 10.515625 -16.609375 10.875 -15.769531 11.59375 -14.8125 C 11.945312 -14.363281 12.207031 -13.988281 12.375 -13.6875 C 12.539062 -13.382812 12.644531 -13.148438 12.6875 -12.984375 C 12.6875 -12.328125 11.742188 -11.523438 9.859375 -10.578125 C 8.390625 -9.847656 7.222656 -9.253906 6.359375 -8.796875 C 5.503906 -8.347656 4.925781 -8.019531 4.625 -7.8125 C 3.28125 -6.863281 2.367188 -6.179688 1.890625 -5.765625 C 1.109375 -4.921875 0.695312 -3.878906 0.65625 -2.640625 C 0.65625 -1.335938 1.148438 -0.257812 2.140625 0.59375 C 3.171875 1.414062 4.472656 1.828125 6.046875 1.828125 C 7.304688 1.828125 8.523438 1.726562 9.703125 1.53125 C 10.878906 1.332031 12.035156 1.039062 13.171875 0.65625 C 15.453125 -0.15625 17.992188 -1.488281 20.796875 -3.34375 C 20.816406 -3.34375 20.910156 -3.179688 21.078125 -2.859375 C 18.171875 -0.785156 15.492188 0.710938 13.046875 1.640625 C 11.785156 2.078125 10.503906 2.398438 9.203125 2.609375 C 7.898438 2.816406 6.535156 2.945312 5.109375 3 C 3.253906 3 1.78125 2.566406 0.6875 1.703125 C -0.351562 0.878906 -0.882812 -0.265625 -0.90625 -1.734375 C -0.90625 -3.328125 -0.289062 -4.742188 0.9375 -5.984375 C 1.28125 -6.316406 1.789062 -6.710938 2.46875 -7.171875 C 3.15625 -7.640625 4.035156 -8.164062 5.109375 -8.75 L 9.203125 -10.9375 C 10.484375 -11.664062 11.125 -12.175781 11.125 -12.46875 C 11.125 -12.75 10.765625 -13.398438 10.046875 -14.421875 C 9.316406 -15.367188 8.953125 -16.160156 8.953125 -16.796875 C 8.953125 -18.597656 10.648438 -20.492188 14.046875 -22.484375 C 15.742188 -23.453125 17.414062 -24.171875 19.0625 -24.640625 C 20.71875 -25.117188 22.363281 -25.378906 24 -25.421875 C 25.320312 -25.421875 26.4375 -25.125 27.34375 -24.53125 C 28.25 -23.945312 28.703125 -23.234375 28.703125 -22.390625 Z M 28.703125 -22.390625 "/></g></g></g><g fill="#1a2332" fill-opacity="1"><g transform="translate(69.869866, 195.749987)"><g><path class="hero-signature-path" fill="none" stroke="#1a2332" stroke-width="1.4" stroke-linecap="round" stroke-linejoin="round" d="M 16.09375 -5.171875 C 16.09375 -5.046875 16.050781 -4.925781 15.96875 -4.8125 C 13.9375 -3.132812 12.507812 -2.023438 11.6875 -1.484375 C 9.769531 -0.179688 8.117188 0.46875 6.734375 0.46875 C 5.546875 0.46875 4.953125 -0.160156 4.953125 -1.421875 C 4.953125 -1.648438 4.976562 -1.9375 5.03125 -2.28125 C 5.082031 -2.625 5.171875 -3.039062 5.296875 -3.53125 C 4.492188 -3.0625 3.675781 -2.582031 2.84375 -2.09375 C 2.019531 -1.601562 1.164062 -1.0625 0.28125 -0.46875 C -0.957031 0.34375 -1.628906 0.75 -1.734375 0.75 C -1.753906 0.75 -1.835938 0.707031 -1.984375 0.625 C -2.109375 0.5625 -2.171875 0.488281 -2.171875 0.40625 C -2.171875 0.257812 -2.082031 0.0195312 -1.90625 -0.3125 C -1.726562 -0.644531 -1.429688 -1.109375 -1.015625 -1.703125 C -0.566406 -2.347656 -0.210938 -2.863281 0.046875 -3.25 C 0.304688 -3.644531 0.488281 -3.925781 0.59375 -4.09375 C 0.507812 -4.21875 0.46875 -4.394531 0.46875 -4.625 C 0.46875 -4.789062 0.601562 -4.972656 0.875 -5.171875 C 1.175781 -5.335938 1.410156 -5.429688 1.578125 -5.453125 C 2.285156 -5.453125 2.640625 -5.175781 2.640625 -4.625 C 2.640625 -4.476562 2.304688 -3.945312 1.640625 -3.03125 C 1.328125 -2.625 1.054688 -2.285156 0.828125 -2.015625 C 0.609375 -1.742188 0.414062 -1.523438 0.25 -1.359375 C 4.238281 -4.085938 6.8125 -5.453125 7.96875 -5.453125 C 8.070312 -5.453125 8.15625 -5.316406 8.21875 -5.046875 C 8.21875 -5.003906 7.894531 -4.613281 7.25 -3.875 C 6.945312 -3.5 6.710938 -3.132812 6.546875 -2.78125 C 6.378906 -2.4375 6.296875 -2.085938 6.296875 -1.734375 C 6.296875 -0.953125 6.832031 -0.5625 7.90625 -0.5625 C 8.707031 -0.5625 10.039062 -1.191406 11.90625 -2.453125 C 12.257812 -2.660156 13.539062 -3.609375 15.75 -5.296875 C 15.8125 -5.316406 15.882812 -5.328125 15.96875 -5.328125 C 16.03125 -5.328125 16.070312 -5.273438 16.09375 -5.171875 Z M 16.09375 -5.171875 "/></g></g></g><g fill="#1a2332" fill-opacity="1"><g transform="translate(84.611881, 195.749987)"><g/></g></g><g fill="#1a2332" fill-opacity="1"><g transform="translate(92.108893, 195.749987)"><g><path class="hero-signature-path" fill="none" stroke="#1a2332" stroke-width="1.4" stroke-linecap="round" stroke-linejoin="round" d="M 17.421875 -20.3125 C 17.421875 -19.414062 16.328125 -17.695312 14.140625 -15.15625 C 12.066406 -12.78125 9.800781 -10.644531 7.34375 -8.75 C 6.164062 -7.832031 5.046875 -7.019531 3.984375 -6.3125 C 2.921875 -5.613281 1.882812 -5.019531 0.875 -4.53125 L -0.34375 -2.359375 L 4.875 -2.359375 C 5.300781 -2.359375 5.515625 -2.160156 5.515625 -1.765625 C 5.515625 -1.597656 5.300781 -1.484375 4.875 -1.421875 L -1.234375 -1.171875 C -2.253906 0.191406 -3.070312 1.269531 -3.6875 2.0625 C -4.3125 2.851562 -4.742188 3.363281 -4.984375 3.59375 C -5.460938 4.175781 -6.035156 4.832031 -6.703125 5.5625 C -7.378906 6.300781 -8.179688 7.132812 -9.109375 8.0625 C -9.710938 8.675781 -10.328125 9.253906 -10.953125 9.796875 C -11.585938 10.335938 -12.273438 10.851562 -13.015625 11.34375 C -14.210938 12.132812 -15.316406 12.726562 -16.328125 13.125 C -17.347656 13.53125 -18.332031 13.734375 -19.28125 13.734375 C -19.863281 13.734375 -20.359375 13.578125 -20.765625 13.265625 C -21.179688 12.972656 -21.390625 12.625 -21.390625 12.21875 C -21.390625 11.738281 -21.113281 11.5 -20.5625 11.5 C -20.476562 11.5625 -20.394531 11.632812 -20.3125 11.71875 C -20.1875 11.863281 -19.945312 12.070312 -19.59375 12.34375 C -19.320312 12.570312 -19.0625 12.734375 -18.8125 12.828125 C -18.570312 12.929688 -18.328125 13.003906 -18.078125 13.046875 C -17.640625 13.046875 -17.113281 12.925781 -16.5 12.6875 C -15.894531 12.457031 -15.171875 12.101562 -14.328125 11.625 C -12.753906 10.695312 -11.265625 9.507812 -9.859375 8.0625 C -8.992188 7.175781 -8.148438 6.257812 -7.328125 5.3125 C -6.515625 4.375 -5.707031 3.390625 -4.90625 2.359375 C -3.5 0.453125 -2.765625 -0.722656 -2.703125 -1.171875 L -3.0625 -1.171875 C -3.5625 -1.171875 -3.8125 -1.390625 -3.8125 -1.828125 C -3.8125 -2.140625 -3.410156 -2.316406 -2.609375 -2.359375 L -1.640625 -2.359375 C -1.222656 -3.035156 -0.585938 -4.019531 0.265625 -5.3125 C 1.117188 -6.601562 2.207031 -8.203125 3.53125 -10.109375 C 8.988281 -17.796875 13.132812 -21.660156 15.96875 -21.703125 C 16.363281 -21.703125 16.710938 -21.566406 17.015625 -21.296875 C 17.285156 -21.023438 17.421875 -20.695312 17.421875 -20.3125 Z M 16.1875 -20.3125 C 16.1875 -20.800781 15.820312 -21.046875 15.09375 -21.046875 C 14.394531 -21.046875 13.1875 -20.289062 11.46875 -18.78125 C 10.625 -18.019531 9.832031 -17.226562 9.09375 -16.40625 C 8.363281 -15.59375 7.664062 -14.742188 7 -13.859375 C 6.320312 -12.910156 5.5 -11.742188 4.53125 -10.359375 C 3.570312 -8.972656 2.460938 -7.359375 1.203125 -5.515625 C 1.703125 -5.847656 2.3125 -6.25 3.03125 -6.71875 C 3.757812 -7.195312 4.628906 -7.75 5.640625 -8.375 C 7.773438 -9.675781 10.03125 -11.617188 12.40625 -14.203125 C 14.925781 -16.910156 16.1875 -18.945312 16.1875 -20.3125 Z M 16.1875 -20.3125 "/></g></g></g><g fill="#1a2332" fill-opacity="1"><g transform="translate(101.621909, 195.749987)"><g><path class="hero-signature-path" fill="none" stroke="#1a2332" stroke-width="1.4" stroke-linecap="round" stroke-linejoin="round" d="M 12.921875 -5.234375 C 12.921875 -5.171875 12.914062 -5.113281 12.90625 -5.0625 C 12.894531 -5.007812 12.851562 -4.945312 12.78125 -4.875 C 11.695312 -3.976562 10.765625 -3.21875 9.984375 -2.59375 C 9.203125 -1.976562 8.582031 -1.523438 8.125 -1.234375 C 5.875 0.285156 3.898438 1.046875 2.203125 1.046875 C 1.785156 1.046875 1.375 0.863281 0.96875 0.5 C 0.632812 0.164062 0.445312 -0.25 0.40625 -0.75 C 0.40625 -1.175781 0.703125 -1.722656 1.296875 -2.390625 C 1.566406 -2.679688 1.832031 -2.96875 2.09375 -3.25 C 2.351562 -3.539062 2.617188 -3.84375 2.890625 -4.15625 C 2.679688 -4.15625 2.46875 -4.140625 2.25 -4.109375 C 2.03125 -4.078125 1.785156 -4.039062 1.515625 -4 C 1.003906 -3.9375 0.601562 -3.90625 0.3125 -3.90625 L 0.1875 -3.90625 C -2.144531 -1.925781 -4.066406 -0.613281 -5.578125 0.03125 C -5.929688 0.03125 -6.109375 -0.0195312 -6.109375 -0.125 C -6.109375 -0.289062 -6.015625 -0.476562 -5.828125 -0.6875 C -5.210938 -0.925781 -4.457031 -1.328125 -3.5625 -1.890625 C -2.675781 -2.453125 -1.625 -3.207031 -0.40625 -4.15625 C -0.550781 -4.300781 -0.632812 -4.457031 -0.65625 -4.625 C -0.65625 -5.03125 -0.300781 -5.617188 0.40625 -6.390625 C 0.757812 -6.773438 1.082031 -7.054688 1.375 -7.234375 C 1.675781 -7.410156 1.941406 -7.519531 2.171875 -7.5625 C 2.503906 -7.5625 2.703125 -7.40625 2.765625 -7.09375 C 2.765625 -6.582031 2.410156 -6.003906 1.703125 -5.359375 C 2.140625 -5.460938 2.503906 -5.535156 2.796875 -5.578125 C 3.097656 -5.617188 3.320312 -5.648438 3.46875 -5.671875 C 4.09375 -5.671875 4.40625 -5.453125 4.40625 -5.015625 C 4.40625 -4.503906 3.957031 -3.84375 3.0625 -3.03125 C 2.21875 -2.25 1.765625 -1.609375 1.703125 -1.109375 C 1.703125 -0.828125 1.816406 -0.550781 2.046875 -0.28125 C 2.253906 -0.09375 2.546875 0.03125 2.921875 0.09375 C 4.160156 0.09375 5.925781 -0.648438 8.21875 -2.140625 C 8.488281 -2.304688 8.984375 -2.648438 9.703125 -3.171875 C 10.429688 -3.703125 11.394531 -4.441406 12.59375 -5.390625 L 12.78125 -5.390625 C 12.875 -5.390625 12.921875 -5.335938 12.921875 -5.234375 Z M 12.921875 -5.234375 "/></g></g></g><g fill="#1a2332" fill-opacity="1"><g transform="translate(113.18242, 195.749987)"><g><path class="hero-signature-path" fill="none" stroke="#1a2332" stroke-width="1.4" stroke-linecap="round" stroke-linejoin="round" d="M 14.328125 -5.203125 C 14.328125 -5.035156 14.285156 -4.914062 14.203125 -4.84375 C 13.128906 -3.925781 12.210938 -3.164062 11.453125 -2.5625 C 10.703125 -1.96875 10.109375 -1.523438 9.671875 -1.234375 C 8.597656 -0.515625 7.628906 0.0234375 6.765625 0.390625 C 5.910156 0.753906 5.132812 0.9375 4.4375 0.9375 C 3.300781 0.9375 2.703125 0.0859375 2.640625 -1.609375 C 2.140625 -1.179688 1.414062 -0.726562 0.46875 -0.25 C -0.425781 0.226562 -1.179688 0.46875 -1.796875 0.46875 C -2.210938 0.46875 -2.601562 0.363281 -2.96875 0.15625 C -3.320312 -0.0078125 -3.5 -0.257812 -3.5 -0.59375 C -3.5 -1.539062 -2.644531 -2.675781 -0.9375 -4 C -0.0625 -4.65625 0.742188 -5.148438 1.484375 -5.484375 C 2.234375 -5.816406 2.9375 -5.984375 3.59375 -5.984375 C 4.363281 -5.984375 4.757812 -5.796875 4.78125 -5.421875 C 4.78125 -4.992188 4.65625 -4.6875 4.40625 -4.5 C 4.15625 -4.3125 3.882812 -4.21875 3.59375 -4.21875 C 3.59375 -4.238281 3.582031 -4.28125 3.5625 -4.34375 C 3.539062 -4.382812 3.519531 -4.429688 3.5 -4.484375 C 3.476562 -4.535156 3.445312 -4.601562 3.40625 -4.6875 C 3.28125 -4.988281 3.023438 -5.160156 2.640625 -5.203125 C 1.804688 -5.203125 0.863281 -4.738281 -0.1875 -3.8125 C -1.257812 -2.925781 -1.796875 -2.128906 -1.796875 -1.421875 C -1.796875 -0.972656 -1.640625 -0.738281 -1.328125 -0.71875 C -0.210938 -0.71875 0.972656 -1.148438 2.234375 -2.015625 C 2.503906 -2.203125 2.976562 -2.664062 3.65625 -3.40625 C 4.070312 -3.925781 4.425781 -4.164062 4.71875 -4.125 C 5 -4.125 5.140625 -4.019531 5.140625 -3.8125 C 5.140625 -3.625 4.957031 -3.210938 4.59375 -2.578125 C 4.257812 -1.992188 4.09375 -1.566406 4.09375 -1.296875 C 4.09375 -0.515625 4.484375 -0.113281 5.265625 -0.09375 C 6.203125 -0.09375 7.710938 -0.804688 9.796875 -2.234375 C 10.066406 -2.398438 10.546875 -2.734375 11.234375 -3.234375 C 11.929688 -3.742188 12.859375 -4.429688 14.015625 -5.296875 C 14.054688 -5.335938 14.117188 -5.359375 14.203125 -5.359375 C 14.285156 -5.359375 14.328125 -5.304688 14.328125 -5.203125 Z M 14.328125 -5.203125 "/></g></g></g><g fill="#1a2332" fill-opacity="1"><g transform="translate(126.128937, 195.749987)"><g><path class="hero-signature-path" fill="none" stroke="#1a2332" stroke-width="1.4" stroke-linecap="round" stroke-linejoin="round" d="M 16.09375 -5.171875 C 16.09375 -5.046875 16.050781 -4.925781 15.96875 -4.8125 C 13.9375 -3.132812 12.507812 -2.023438 11.6875 -1.484375 C 9.769531 -0.179688 8.117188 0.46875 6.734375 0.46875 C 5.546875 0.46875 4.953125 -0.160156 4.953125 -1.421875 C 4.953125 -1.648438 4.976562 -1.9375 5.03125 -2.28125 C 5.082031 -2.625 5.171875 -3.039062 5.296875 -3.53125 C 4.492188 -3.0625 3.675781 -2.582031 2.84375 -2.09375 C 2.019531 -1.601562 1.164062 -1.0625 0.28125 -0.46875 C -0.957031 0.34375 -1.628906 0.75 -1.734375 0.75 C -1.753906 0.75 -1.835938 0.707031 -1.984375 0.625 C -2.109375 0.5625 -2.171875 0.488281 -2.171875 0.40625 C -2.171875 0.257812 -2.082031 0.0195312 -1.90625 -0.3125 C -1.726562 -0.644531 -1.429688 -1.109375 -1.015625 -1.703125 C -0.566406 -2.347656 -0.210938 -2.863281 0.046875 -3.25 C 0.304688 -3.644531 0.488281 -3.925781 0.59375 -4.09375 C 0.507812 -4.21875 0.46875 -4.394531 0.46875 -4.625 C 0.46875 -4.789062 0.601562 -4.972656 0.875 -5.171875 C 1.175781 -5.335938 1.410156 -5.429688 1.578125 -5.453125 C 2.285156 -5.453125 2.640625 -5.175781 2.640625 -4.625 C 2.640625 -4.476562 2.304688 -3.945312 1.640625 -3.03125 C 1.328125 -2.625 1.054688 -2.285156 0.828125 -2.015625 C 0.609375 -1.742188 0.414062 -1.523438 0.25 -1.359375 C 4.238281 -4.085938 6.8125 -5.453125 7.96875 -5.453125 C 8.070312 -5.453125 8.15625 -5.316406 8.21875 -5.046875 C 8.21875 -5.003906 7.894531 -4.613281 7.25 -3.875 C 6.945312 -3.5 6.710938 -3.132812 6.546875 -2.78125 C 6.378906 -2.4375 6.296875 -2.085938 6.296875 -1.734375 C 6.296875 -0.953125 6.832031 -0.5625 7.90625 -0.5625 C 8.707031 -0.5625 10.039062 -1.191406 11.90625 -2.453125 C 12.257812 -2.660156 13.539062 -3.609375 15.75 -5.296875 C 15.8125 -5.316406 15.882812 -5.328125 15.96875 -5.328125 C 16.03125 -5.328125 16.070312 -5.273438 16.09375 -5.171875 Z M 16.09375 -5.171875 "/></g></g></g><g fill="#1a2332" fill-opacity="1"><g transform="translate(140.870952, 195.749987)"><g><path class="hero-signature-path" fill="none" stroke="#1a2332" stroke-width="1.4" stroke-linecap="round" stroke-linejoin="round" d="M 0.65625 1.296875 C -0.0078125 1.234375 -0.578125 0.976562 -1.046875 0.53125 C -1.566406 0.09375 -1.828125 -0.503906 -1.828125 -1.265625 C -1.828125 -2.347656 -1.125 -3.519531 0.28125 -4.78125 C 1.019531 -5.476562 1.789062 -6 2.59375 -6.34375 C 3.40625 -6.6875 4.242188 -6.882812 5.109375 -6.9375 C 5.753906 -6.9375 6.109375 -6.617188 6.171875 -5.984375 C 6.171875 -5.378906 5.695312 -4.78125 4.75 -4.1875 C 4.351562 -3.914062 3.976562 -3.722656 3.625 -3.609375 C 3.269531 -3.492188 2.941406 -3.425781 2.640625 -3.40625 C 2.160156 -3.40625 1.921875 -3.519531 1.921875 -3.75 C 1.921875 -4.351562 2.234375 -4.65625 2.859375 -4.65625 C 2.898438 -4.65625 2.945312 -4.648438 3 -4.640625 C 3.0625 -4.628906 3.144531 -4.601562 3.25 -4.5625 C 3.375 -4.5 3.570312 -4.445312 3.84375 -4.40625 C 4.132812 -4.40625 4.40625 -4.570312 4.65625 -4.90625 C 4.957031 -5.25 5.109375 -5.535156 5.109375 -5.765625 C 5.109375 -5.929688 4.832031 -6.035156 4.28125 -6.078125 C 3.332031 -6.078125 2.296875 -5.570312 1.171875 -4.5625 C 0.140625 -3.601562 -0.40625 -2.703125 -0.46875 -1.859375 C -0.46875 -1.316406 -0.195312 -0.820312 0.34375 -0.375 C 0.757812 0.0390625 1.410156 0.25 2.296875 0.25 C 3.554688 0.25 5.078125 -0.242188 6.859375 -1.234375 C 7.453125 -1.523438 8.082031 -1.890625 8.75 -2.328125 C 9.425781 -2.773438 10.132812 -3.300781 10.875 -3.90625 C 12.101562 -4.875 12.765625 -5.359375 12.859375 -5.359375 C 13.003906 -5.359375 13.078125 -5.265625 13.078125 -5.078125 C 13.078125 -4.960938 12.457031 -4.394531 11.21875 -3.375 C 10.644531 -2.882812 10.148438 -2.488281 9.734375 -2.1875 C 9.316406 -1.882812 8.96875 -1.628906 8.6875 -1.421875 C 7.363281 -0.492188 6.066406 0.1875 4.796875 0.625 C 3.523438 1.070312 2.296875 1.304688 1.109375 1.328125 C 1.066406 1.492188 1.046875 1.628906 1.046875 1.734375 C 1.046875 1.898438 1.101562 2.039062 1.21875 2.15625 C 1.332031 2.269531 1.566406 2.410156 1.921875 2.578125 C 2.234375 2.742188 2.539062 2.875 2.84375 2.96875 C 3.15625 3.070312 3.429688 3.179688 3.671875 3.296875 C 3.910156 3.410156 4.109375 3.5625 4.265625 3.75 C 4.421875 3.9375 4.507812 4.195312 4.53125 4.53125 C 4.570312 5.289062 4.222656 5.890625 3.484375 6.328125 C 2.753906 6.773438 1.78125 7 0.5625 7 C 0.1875 7 -0.179688 6.945312 -0.546875 6.84375 C -0.921875 6.75 -1.25 6.628906 -1.53125 6.484375 C -1.8125 6.335938 -2.039062 6.179688 -2.21875 6.015625 C -2.394531 5.847656 -2.484375 5.691406 -2.484375 5.546875 C -2.484375 5.378906 -2.457031 5.296875 -2.40625 5.296875 C -2.351562 5.296875 -2.296875 5.296875 -2.234375 5.296875 C -2.171875 5.296875 -2.070312 5.359375 -1.9375 5.484375 C -1.800781 5.609375 -1.625 5.75 -1.40625 5.90625 C -1.1875 6.0625 -0.910156 6.203125 -0.578125 6.328125 C -0.253906 6.453125 0.125 6.515625 0.5625 6.515625 C 1.050781 6.515625 1.445312 6.460938 1.75 6.359375 C 2.050781 6.253906 2.285156 6.117188 2.453125 5.953125 C 2.617188 5.785156 2.734375 5.597656 2.796875 5.390625 C 2.859375 5.179688 2.890625 4.957031 2.890625 4.71875 C 2.890625 4.53125 2.832031 4.367188 2.71875 4.234375 C 2.601562 4.097656 2.460938 3.972656 2.296875 3.859375 C 2.128906 3.742188 1.945312 3.644531 1.75 3.5625 C 1.550781 3.476562 1.359375 3.394531 1.171875 3.3125 C 0.785156 3.144531 0.550781 2.96875 0.46875 2.78125 C 0.382812 2.601562 0.34375 2.398438 0.34375 2.171875 C 0.34375 2.003906 0.445312 1.710938 0.65625 1.296875 Z M 0.65625 1.296875 "/></g></g></g><g fill="#1a2332" fill-opacity="1"><g transform="translate(152.557463, 195.749987)"><g><path class="hero-signature-path" fill="none" stroke="#1a2332" stroke-width="1.4" stroke-linecap="round" stroke-linejoin="round" d="M 14.328125 -5.203125 C 14.328125 -5.035156 14.285156 -4.914062 14.203125 -4.84375 C 13.128906 -3.925781 12.210938 -3.164062 11.453125 -2.5625 C 10.703125 -1.96875 10.109375 -1.523438 9.671875 -1.234375 C 8.597656 -0.515625 7.628906 0.0234375 6.765625 0.390625 C 5.910156 0.753906 5.132812 0.9375 4.4375 0.9375 C 3.300781 0.9375 2.703125 0.0859375 2.640625 -1.609375 C 2.140625 -1.179688 1.414062 -0.726562 0.46875 -0.25 C -0.425781 0.226562 -1.179688 0.46875 -1.796875 0.46875 C -2.210938 0.46875 -2.601562 0.363281 -2.96875 0.15625 C -3.320312 -0.0078125 -3.5 -0.257812 -3.5 -0.59375 C -3.5 -1.539062 -2.644531 -2.675781 -0.9375 -4 C -0.0625 -4.65625 0.742188 -5.148438 1.484375 -5.484375 C 2.234375 -5.816406 2.9375 -5.984375 3.59375 -5.984375 C 4.363281 -5.984375 4.757812 -5.796875 4.78125 -5.421875 C 4.78125 -4.992188 4.65625 -4.6875 4.40625 -4.5 C 4.15625 -4.3125 3.882812 -4.21875 3.59375 -4.21875 C 3.59375 -4.238281 3.582031 -4.28125 3.5625 -4.34375 C 3.539062 -4.382812 3.519531 -4.429688 3.5 -4.484375 C 3.476562 -4.535156 3.445312 -4.601562 3.40625 -4.6875 C 3.28125 -4.988281 3.023438 -5.160156 2.640625 -5.203125 C 1.804688 -5.203125 0.863281 -4.738281 -0.1875 -3.8125 C -1.257812 -2.925781 -1.796875 -2.128906 -1.796875 -1.421875 C -1.796875 -0.972656 -1.640625 -0.738281 -1.328125 -0.71875 C -0.210938 -0.71875 0.972656 -1.148438 2.234375 -2.015625 C 2.503906 -2.203125 2.976562 -2.664062 3.65625 -3.40625 C 4.070312 -3.925781 4.425781 -4.164062 4.71875 -4.125 C 5 -4.125 5.140625 -4.019531 5.140625 -3.8125 C 5.140625 -3.625 4.957031 -3.210938 4.59375 -2.578125 C 4.257812 -1.992188 4.09375 -1.566406 4.09375 -1.296875 C 4.09375 -0.515625 4.484375 -0.113281 5.265625 -0.09375 C 6.203125 -0.09375 7.710938 -0.804688 9.796875 -2.234375 C 10.066406 -2.398438 10.546875 -2.734375 11.234375 -3.234375 C 11.929688 -3.742188 12.859375 -4.429688 14.015625 -5.296875 C 14.054688 -5.335938 14.117188 -5.359375 14.203125 -5.359375 C 14.285156 -5.359375 14.328125 -5.304688 14.328125 -5.203125 Z M 14.328125 -5.203125 "/></g></g></g><g fill="#1a2332" fill-opacity="1"><g transform="translate(165.503981, 195.749987)"><g><path class="hero-signature-path" fill="none" stroke="#1a2332" stroke-width="1.4" stroke-linecap="round" stroke-linejoin="round" d="M 3.96875 -7.53125 C 3.96875 -6.9375 3.546875 -6.640625 2.703125 -6.640625 C 1.890625 -6.640625 1.484375 -6.9375 1.484375 -7.53125 C 1.484375 -8.132812 1.890625 -8.4375 2.703125 -8.4375 C 3.546875 -8.4375 3.96875 -8.132812 3.96875 -7.53125 Z M 9.109375 -5.171875 C 9.109375 -5.046875 9.054688 -4.9375 8.953125 -4.84375 C 7.816406 -3.863281 6.898438 -3.085938 6.203125 -2.515625 C 5.515625 -1.953125 5.007812 -1.566406 4.6875 -1.359375 C 2.84375 0.00390625 1.4375 0.6875 0.46875 0.6875 C -0.113281 0.6875 -0.671875 0.507812 -1.203125 0.15625 C -1.679688 -0.175781 -1.941406 -0.597656 -1.984375 -1.109375 C -1.984375 -1.878906 -1.570312 -2.789062 -0.75 -3.84375 C -0.0195312 -4.8125 0.628906 -5.359375 1.203125 -5.484375 C 1.472656 -5.484375 1.609375 -5.390625 1.609375 -5.203125 C 1.609375 -5.035156 1.269531 -4.570312 0.59375 -3.8125 C 0.0078125 -3.050781 -0.300781 -2.335938 -0.34375 -1.671875 C -0.34375 -0.828125 0.0390625 -0.394531 0.8125 -0.375 C 1.695312 -0.375 4.34375 -2.015625 8.75 -5.296875 C 8.789062 -5.335938 8.859375 -5.359375 8.953125 -5.359375 C 9.015625 -5.359375 9.066406 -5.296875 9.109375 -5.171875 Z M 9.109375 -5.171875 "/></g></g></g><g fill="#1a2332" fill-opacity="1"><g transform="translate(173.221486, 195.749987)"><g><path class="hero-signature-path" fill="none" stroke="#1a2332" stroke-width="1.4" stroke-linecap="round" stroke-linejoin="round" d="M 11 -5.171875 C 11 -5.046875 10.957031 -4.925781 10.875 -4.8125 C 8.4375 -2.820312 6.941406 -1.648438 6.390625 -1.296875 C 4.234375 0.0859375 1.882812 0.800781 -0.65625 0.84375 C -1.4375 0.84375 -2.054688 0.6875 -2.515625 0.375 C -2.679688 0.289062 -3.0625 -0.0390625 -3.65625 -0.625 C -3.65625 -0.769531 -3.632812 -0.882812 -3.59375 -0.96875 C -3.945312 -0.757812 -4.285156 -0.570312 -4.609375 -0.40625 C -4.941406 -0.238281 -5.265625 -0.09375 -5.578125 0.03125 C -5.929688 0.03125 -6.117188 -0.0195312 -6.140625 -0.125 C -6.140625 -0.1875 -6.113281 -0.257812 -6.0625 -0.34375 C -6.007812 -0.425781 -5.929688 -0.539062 -5.828125 -0.6875 C -4.835938 -1.175781 -3.820312 -1.757812 -2.78125 -2.4375 C -1.75 -3.125 -0.675781 -3.90625 0.4375 -4.78125 C 0.4375 -4.800781 0.445312 -4.832031 0.46875 -4.875 C 1.0625 -5.34375 1.691406 -5.597656 2.359375 -5.640625 C 3.410156 -5.640625 3.9375 -5.164062 3.9375 -4.21875 C 3.9375 -3.59375 3.613281 -2.847656 2.96875 -1.984375 C 2.394531 -1.203125 1.828125 -0.644531 1.265625 -0.3125 C 2.566406 -0.3125 4.273438 -0.984375 6.390625 -2.328125 C 6.878906 -2.597656 7.46875 -2.976562 8.15625 -3.46875 C 8.851562 -3.96875 9.679688 -4.585938 10.640625 -5.328125 C 10.703125 -5.347656 10.78125 -5.359375 10.875 -5.359375 C 10.9375 -5.359375 10.976562 -5.296875 11 -5.171875 Z M 2.421875 -3.8125 C 2.421875 -4.332031 2.148438 -4.59375 1.609375 -4.59375 C 1.484375 -4.59375 1.367188 -4.59375 1.265625 -4.59375 C 1.160156 -4.59375 1.078125 -4.570312 1.015625 -4.53125 C 0.210938 -3.863281 -0.523438 -3.257812 -1.203125 -2.71875 C -1.890625 -2.1875 -2.53125 -1.710938 -3.125 -1.296875 C -3.019531 -1.296875 -2.921875 -1.273438 -2.828125 -1.234375 C -2.117188 -0.785156 -1.515625 -0.539062 -1.015625 -0.5 C -0.566406 -0.5 -0.132812 -0.597656 0.28125 -0.796875 C 0.695312 -1.003906 1.085938 -1.328125 1.453125 -1.765625 C 1.765625 -2.117188 1.992188 -2.457031 2.140625 -2.78125 C 2.285156 -3.113281 2.378906 -3.457031 2.421875 -3.8125 Z M 2.421875 -3.8125 "/></g></g></g><g fill="#1a2332" fill-opacity="1"><g transform="translate(182.860501, 195.749987)"><g/></g></g><g fill="#1a2332" fill-opacity="1"><g transform="translate(190.357514, 195.749987)"><g><path class="hero-signature-path" fill="none" stroke="#1a2332" stroke-width="1.4" stroke-linecap="round" stroke-linejoin="round" d="M 11 -5.171875 C 11 -5.046875 10.957031 -4.925781 10.875 -4.8125 C 8.4375 -2.820312 6.941406 -1.648438 6.390625 -1.296875 C 4.234375 0.0859375 1.882812 0.800781 -0.65625 0.84375 C -1.4375 0.84375 -2.054688 0.6875 -2.515625 0.375 C -2.679688 0.289062 -3.0625 -0.0390625 -3.65625 -0.625 C -3.65625 -0.769531 -3.632812 -0.882812 -3.59375 -0.96875 C -3.945312 -0.757812 -4.285156 -0.570312 -4.609375 -0.40625 C -4.941406 -0.238281 -5.265625 -0.09375 -5.578125 0.03125 C -5.929688 0.03125 -6.117188 -0.0195312 -6.140625 -0.125 C -6.140625 -0.1875 -6.113281 -0.257812 -6.0625 -0.34375 C -6.007812 -0.425781 -5.929688 -0.539062 -5.828125 -0.6875 C -4.835938 -1.175781 -3.820312 -1.757812 -2.78125 -2.4375 C -1.75 -3.125 -0.675781 -3.90625 0.4375 -4.78125 C 0.4375 -4.800781 0.445312 -4.832031 0.46875 -4.875 C 1.0625 -5.34375 1.691406 -5.597656 2.359375 -5.640625 C 3.410156 -5.640625 3.9375 -5.164062 3.9375 -4.21875 C 3.9375 -3.59375 3.613281 -2.847656 2.96875 -1.984375 C 2.394531 -1.203125 1.828125 -0.644531 1.265625 -0.3125 C 2.566406 -0.3125 4.273438 -0.984375 6.390625 -2.328125 C 6.878906 -2.597656 7.46875 -2.976562 8.15625 -3.46875 C 8.851562 -3.96875 9.679688 -4.585938 10.640625 -5.328125 C 10.703125 -5.347656 10.78125 -5.359375 10.875 -5.359375 C 10.9375 -5.359375 10.976562 -5.296875 11 -5.171875 Z M 2.421875 -3.8125 C 2.421875 -4.332031 2.148438 -4.59375 1.609375 -4.59375 C 1.484375 -4.59375 1.367188 -4.59375 1.265625 -4.59375 C 1.160156 -4.59375 1.078125 -4.570312 1.015625 -4.53125 C 0.210938 -3.863281 -0.523438 -3.257812 -1.203125 -2.71875 C -1.890625 -2.1875 -2.53125 -1.710938 -3.125 -1.296875 C -3.019531 -1.296875 -2.921875 -1.273438 -2.828125 -1.234375 C -2.117188 -0.785156 -1.515625 -0.539062 -1.015625 -0.5 C -0.566406 -0.5 -0.132812 -0.597656 0.28125 -0.796875 C 0.695312 -1.003906 1.085938 -1.328125 1.453125 -1.765625 C 1.765625 -2.117188 1.992188 -2.457031 2.140625 -2.78125 C 2.285156 -3.113281 2.378906 -3.457031 2.421875 -3.8125 Z M 2.421875 -3.8125 "/></g></g></g><g fill="#1a2332" fill-opacity="1"><g transform="translate(199.996528, 195.749987)"><g><path class="hero-signature-path" fill="none" stroke="#1a2332" stroke-width="1.4" stroke-linecap="round" stroke-linejoin="round" d="M 7.5625 -20.25 C 7.5625 -20.019531 7.539062 -19.816406 7.5 -19.640625 C 7.457031 -19.460938 7.40625 -19.300781 7.34375 -19.15625 C 7.238281 -18.96875 6.804688 -18.429688 6.046875 -17.546875 C 5.628906 -17.191406 5.265625 -16.925781 4.953125 -16.75 C 4.648438 -16.582031 4.382812 -16.476562 4.15625 -16.4375 C 4.03125 -16.4375 3.9375 -16.597656 3.875 -16.921875 C 3.875 -17.023438 4.03125 -17.222656 4.34375 -17.515625 C 4.71875 -17.785156 4.960938 -18.015625 5.078125 -18.203125 C 5.265625 -18.472656 5.421875 -18.8125 5.546875 -19.21875 C 5.585938 -19.382812 5.640625 -19.554688 5.703125 -19.734375 C 5.765625 -19.910156 5.816406 -20.09375 5.859375 -20.28125 C 5.984375 -20.601562 6.265625 -20.796875 6.703125 -20.859375 C 7.273438 -20.859375 7.5625 -20.65625 7.5625 -20.25 Z M 7.5625 -20.25 "/></g></g></g><g fill="#1a2332" fill-opacity="1"><g transform="translate(204.060039, 195.749987)"><g><path class="hero-signature-path" fill="none" stroke="#1a2332" stroke-width="1.4" stroke-linecap="round" stroke-linejoin="round" d="M 3.96875 -7.53125 C 3.96875 -6.9375 3.546875 -6.640625 2.703125 -6.640625 C 1.890625 -6.640625 1.484375 -6.9375 1.484375 -7.53125 C 1.484375 -8.132812 1.890625 -8.4375 2.703125 -8.4375 C 3.546875 -8.4375 3.96875 -8.132812 3.96875 -7.53125 Z M 9.109375 -5.171875 C 9.109375 -5.046875 9.054688 -4.9375 8.953125 -4.84375 C 7.816406 -3.863281 6.898438 -3.085938 6.203125 -2.515625 C 5.515625 -1.953125 5.007812 -1.566406 4.6875 -1.359375 C 2.84375 0.00390625 1.4375 0.6875 0.46875 0.6875 C -0.113281 0.6875 -0.671875 0.507812 -1.203125 0.15625 C -1.679688 -0.175781 -1.941406 -0.597656 -1.984375 -1.109375 C -1.984375 -1.878906 -1.570312 -2.789062 -0.75 -3.84375 C -0.0195312 -4.8125 0.628906 -5.359375 1.203125 -5.484375 C 1.472656 -5.484375 1.609375 -5.390625 1.609375 -5.203125 C 1.609375 -5.035156 1.269531 -4.570312 0.59375 -3.8125 C 0.0078125 -3.050781 -0.300781 -2.335938 -0.34375 -1.671875 C -0.34375 -0.828125 0.0390625 -0.394531 0.8125 -0.375 C 1.695312 -0.375 4.34375 -2.015625 8.75 -5.296875 C 8.789062 -5.335938 8.859375 -5.359375 8.953125 -5.359375 C 9.015625 -5.359375 9.066406 -5.296875 9.109375 -5.171875 Z M 9.109375 -5.171875 "/></g></g></g><g fill="#1a2332" fill-opacity="1"><g transform="translate(211.777545, 195.749987)"><g><path class="hero-signature-path" fill="none" stroke="#1a2332" stroke-width="1.4" stroke-linecap="round" stroke-linejoin="round" d="M 14.421875 -20 C 14.421875 -18.21875 12.878906 -15.65625 9.796875 -12.3125 C 7.867188 -10.257812 5.695312 -8.210938 3.28125 -6.171875 C 2.476562 -5.546875 1.617188 -4.875 0.703125 -4.15625 C -0.203125 -3.445312 -1.210938 -2.691406 -2.328125 -1.890625 C -2.304688 -1.453125 -1.953125 -1.039062 -1.265625 -0.65625 C -0.648438 -0.320312 0.0625 -0.15625 0.875 -0.15625 C 2.4375 -0.15625 4.253906 -0.835938 6.328125 -2.203125 L 10.453125 -5.296875 C 10.515625 -5.335938 10.597656 -5.359375 10.703125 -5.359375 C 10.765625 -5.359375 10.796875 -5.296875 10.796875 -5.171875 C 10.796875 -5.023438 10.765625 -4.90625 10.703125 -4.8125 C 9.765625 -4.039062 8.914062 -3.363281 8.15625 -2.78125 C 7.40625 -2.207031 6.722656 -1.734375 6.109375 -1.359375 C 3.921875 -0.0351562 1.988281 0.632812 0.3125 0.65625 C -2.539062 0.65625 -3.988281 -0.460938 -4.03125 -2.703125 C -4.03125 -4.679688 -2.976562 -7.265625 -0.875 -10.453125 C 1.132812 -13.421875 3.441406 -16.003906 6.046875 -18.203125 C 8.753906 -20.535156 10.957031 -21.703125 12.65625 -21.703125 C 13.164062 -21.703125 13.585938 -21.535156 13.921875 -21.203125 C 14.253906 -20.890625 14.421875 -20.488281 14.421875 -20 Z M 12.984375 -19.65625 C 12.984375 -20.5 12.445312 -20.878906 11.375 -20.796875 C 10.78125 -20.753906 10.0625 -20.484375 9.21875 -19.984375 C 8.382812 -19.492188 7.398438 -18.742188 6.265625 -17.734375 C 5.128906 -16.785156 4.101562 -15.8125 3.1875 -14.8125 C 2.28125 -13.820312 1.457031 -12.789062 0.71875 -11.71875 C -0.238281 -10.3125 -1.046875 -8.726562 -1.703125 -6.96875 C -2.222656 -5.507812 -2.515625 -4.3125 -2.578125 -3.375 C -2.578125 -3.101562 -2.523438 -2.878906 -2.421875 -2.703125 C -1.859375 -2.984375 -0.617188 -3.890625 1.296875 -5.421875 C 3.554688 -7.285156 5.632812 -9.144531 7.53125 -11 C 9.351562 -12.78125 10.644531 -14.238281 11.40625 -15.375 C 12.457031 -16.90625 12.984375 -18.332031 12.984375 -19.65625 Z M 12.984375 -19.65625 "/></g></g></g><g fill="#1a2332" fill-opacity="1"><g transform="translate(221.22756, 195.749987)"><g/></g></g><g fill="#1a2332" fill-opacity="1"><g transform="translate(228.724573, 195.749987)"><g><path class="hero-signature-path" fill="none" stroke="#1a2332" stroke-width="1.4" stroke-linecap="round" stroke-linejoin="round" d="M 14.296875 -5.171875 C 14.296875 -5.023438 14.253906 -4.90625 14.171875 -4.8125 C 13.460938 -4 12.414062 -3.085938 11.03125 -2.078125 C 10.082031 -1.410156 9.222656 -0.910156 8.453125 -0.578125 C 7.691406 -0.253906 6.972656 -0.0820312 6.296875 -0.0625 C 5.710938 -0.0625 5.019531 -0.492188 4.21875 -1.359375 C 2.601562 0.242188 1.257812 1.054688 0.1875 1.078125 C -0.332031 1.078125 -0.753906 0.925781 -1.078125 0.625 C -1.390625 0.375 -1.546875 0.0078125 -1.546875 -0.46875 C -1.546875 -1 -1.359375 -1.65625 -0.984375 -2.4375 C -0.617188 -3.226562 -0.0390625 -4.140625 0.75 -5.171875 C 0.851562 -5.296875 1.066406 -5.378906 1.390625 -5.421875 C 1.554688 -5.421875 1.648438 -5.359375 1.671875 -5.234375 C 1.671875 -5.191406 1.660156 -5.148438 1.640625 -5.109375 C 1.535156 -5.109375 1.390625 -4.976562 1.203125 -4.71875 C 1.023438 -4.46875 0.78125 -4.082031 0.46875 -3.5625 C -0.09375 -2.570312 -0.375 -1.816406 -0.375 -1.296875 C -0.375 -0.492188 0.0195312 -0.0625 0.8125 0 C 1.382812 0 2.382812 -0.617188 3.8125 -1.859375 C 3.476562 -2.359375 3.289062 -3.082031 3.25 -4.03125 C 3.25 -4.550781 3.394531 -5.023438 3.6875 -5.453125 C 4.019531 -5.847656 4.414062 -6.046875 4.875 -6.046875 C 5.695312 -6.046875 6.109375 -5.582031 6.109375 -4.65625 C 6.109375 -3.613281 5.675781 -2.660156 4.8125 -1.796875 C 5.34375 -1.078125 5.878906 -0.71875 6.421875 -0.71875 C 7.390625 -0.71875 8.710938 -1.265625 10.390625 -2.359375 C 11.921875 -3.347656 13.109375 -4.328125 13.953125 -5.296875 C 13.992188 -5.378906 14.066406 -5.398438 14.171875 -5.359375 C 14.210938 -5.359375 14.253906 -5.296875 14.296875 -5.171875 Z M 5.609375 -4.5625 C 5.609375 -5.175781 5.421875 -5.484375 5.046875 -5.484375 C 4.328125 -5.484375 3.957031 -5.03125 3.9375 -4.125 C 3.9375 -3.457031 4.082031 -2.867188 4.375 -2.359375 L 5.234375 -3.40625 C 5.460938 -3.757812 5.585938 -4.144531 5.609375 -4.5625 Z M 5.609375 -4.5625 "/></g></g></g><g fill="#1a2332" fill-opacity="1"><g transform="translate(241.671079, 195.749987)"><g><path class="hero-signature-path" fill="none" stroke="#1a2332" stroke-width="1.4" stroke-linecap="round" stroke-linejoin="round" d="M 10.875 -5.171875 C 10.875 -5.109375 10.867188 -5.046875 10.859375 -4.984375 C 10.847656 -4.929688 10.804688 -4.863281 10.734375 -4.78125 C 9.984375 -3.863281 8.832031 -2.878906 7.28125 -1.828125 C 6.4375 -1.210938 5.695312 -0.757812 5.0625 -0.46875 C 4.4375 -0.175781 3.914062 -0.0195312 3.5 0 C 2.90625 0 2.398438 -0.195312 1.984375 -0.59375 C 1.796875 -0.34375 1.3125 0 0.53125 0.4375 C -0.363281 0.925781 -1.203125 1.171875 -1.984375 1.171875 C -3.078125 1.171875 -3.625 0.738281 -3.625 -0.125 C -3.625 -0.6875 -3.410156 -1.273438 -2.984375 -1.890625 C -2.566406 -2.515625 -1.960938 -3.1875 -1.171875 -3.90625 C -0.390625 -4.570312 0.335938 -5.0625 1.015625 -5.375 C 1.703125 -5.695312 2.316406 -5.859375 2.859375 -5.859375 C 3.929688 -5.859375 4.46875 -5.351562 4.46875 -4.34375 C 4.46875 -3.226562 3.835938 -2.140625 2.578125 -1.078125 C 2.859375 -0.796875 3.195312 -0.65625 3.59375 -0.65625 C 4.300781 -0.65625 5.46875 -1.234375 7.09375 -2.390625 C 7.78125 -2.878906 8.410156 -3.363281 8.984375 -3.84375 C 9.566406 -4.320312 10.085938 -4.804688 10.546875 -5.296875 C 10.566406 -5.359375 10.628906 -5.367188 10.734375 -5.328125 C 10.828125 -5.328125 10.875 -5.273438 10.875 -5.171875 Z M 4.03125 -4.59375 C 4.03125 -4.9375 3.84375 -5.128906 3.46875 -5.171875 C 2.976562 -5.171875 2.554688 -4.957031 2.203125 -4.53125 C 1.890625 -4.15625 1.710938 -3.707031 1.671875 -3.1875 C 1.671875 -2.40625 1.804688 -1.890625 2.078125 -1.640625 C 3.335938 -2.628906 3.988281 -3.613281 4.03125 -4.59375 Z M 1.609375 -1.140625 C 1.179688 -1.554688 0.96875 -2.097656 0.96875 -2.765625 C 0.96875 -3.671875 1.160156 -4.3125 1.546875 -4.6875 C -0.953125 -3.539062 -2.203125 -2.335938 -2.203125 -1.078125 C -2.203125 -0.296875 -1.898438 0.09375 -1.296875 0.09375 C -0.367188 0.09375 0.597656 -0.316406 1.609375 -1.140625 Z M 1.609375 -1.140625 "/></g></g></g><g fill="#1a2332" fill-opacity="1"><g transform="translate(251.184094, 195.749987)"><g><path class="hero-signature-path" fill="none" stroke="#1a2332" stroke-width="1.4" stroke-linecap="round" stroke-linejoin="round" d="M 13.859375 -5.171875 C 13.859375 -5.046875 13.804688 -4.925781 13.703125 -4.8125 C 9.117188 -0.957031 5.90625 0.96875 4.0625 0.96875 C 3.070312 0.96875 2.484375 0.148438 2.296875 -1.484375 C 1.753906 -0.867188 0.945312 -0.3125 -0.125 0.1875 C -0.945312 0.539062 -1.546875 0.726562 -1.921875 0.75 C -2.253906 0.75 -2.554688 0.601562 -2.828125 0.3125 C -3.128906 0.0625 -3.289062 -0.257812 -3.3125 -0.65625 C -3.3125 -1.375 -2.992188 -2.078125 -2.359375 -2.765625 C -2.046875 -3.066406 -1.582031 -3.441406 -0.96875 -3.890625 C -0.363281 -4.335938 0.410156 -4.867188 1.359375 -5.484375 C 1.546875 -5.484375 1.609375 -5.335938 1.546875 -5.046875 C 1.273438 -4.867188 1 -4.679688 0.71875 -4.484375 C 0.445312 -4.285156 0.164062 -4.082031 -0.125 -3.875 C -1.132812 -2.988281 -1.648438 -2.191406 -1.671875 -1.484375 C -1.671875 -0.828125 -1.484375 -0.46875 -1.109375 -0.40625 C -0.890625 -0.40625 -0.476562 -0.550781 0.125 -0.84375 C 0.5 -1.019531 0.832031 -1.195312 1.125 -1.375 C 1.425781 -1.550781 1.691406 -1.722656 1.921875 -1.890625 C 2.359375 -2.203125 3.050781 -2.988281 4 -4.25 C 4.757812 -5.21875 5.304688 -5.703125 5.640625 -5.703125 C 5.890625 -5.703125 6.023438 -5.585938 6.046875 -5.359375 C 6.046875 -5.253906 5.953125 -5.082031 5.765625 -4.84375 C 5.578125 -4.613281 5.269531 -4.300781 4.84375 -3.90625 C 4.09375 -3.1875 3.71875 -2.578125 3.71875 -2.078125 C 3.71875 -1.597656 3.863281 -1.175781 4.15625 -0.8125 C 4.382812 -0.457031 4.671875 -0.257812 5.015625 -0.21875 C 5.910156 -0.21875 7.359375 -0.890625 9.359375 -2.234375 L 13.515625 -5.328125 C 13.578125 -5.347656 13.640625 -5.359375 13.703125 -5.359375 C 13.785156 -5.359375 13.835938 -5.296875 13.859375 -5.171875 Z M 13.859375 -5.171875 "/></g></g></g><g fill="#1a2332" fill-opacity="1"><g transform="translate(263.658107, 195.749987)"><g><path class="hero-signature-path" fill="none" stroke="#1a2332" stroke-width="1.4" stroke-linecap="round" stroke-linejoin="round" d="M 11 -5.171875 C 11 -5.046875 10.957031 -4.925781 10.875 -4.8125 C 8.4375 -2.820312 6.941406 -1.648438 6.390625 -1.296875 C 4.234375 0.0859375 1.882812 0.800781 -0.65625 0.84375 C -1.4375 0.84375 -2.054688 0.6875 -2.515625 0.375 C -2.679688 0.289062 -3.0625 -0.0390625 -3.65625 -0.625 C -3.65625 -0.769531 -3.632812 -0.882812 -3.59375 -0.96875 C -3.945312 -0.757812 -4.285156 -0.570312 -4.609375 -0.40625 C -4.941406 -0.238281 -5.265625 -0.09375 -5.578125 0.03125 C -5.929688 0.03125 -6.117188 -0.0195312 -6.140625 -0.125 C -6.140625 -0.1875 -6.113281 -0.257812 -6.0625 -0.34375 C -6.007812 -0.425781 -5.929688 -0.539062 -5.828125 -0.6875 C -4.835938 -1.175781 -3.820312 -1.757812 -2.78125 -2.4375 C -1.75 -3.125 -0.675781 -3.90625 0.4375 -4.78125 C 0.4375 -4.800781 0.445312 -4.832031 0.46875 -4.875 C 1.0625 -5.34375 1.691406 -5.597656 2.359375 -5.640625 C 3.410156 -5.640625 3.9375 -5.164062 3.9375 -4.21875 C 3.9375 -3.59375 3.613281 -2.847656 2.96875 -1.984375 C 2.394531 -1.203125 1.828125 -0.644531 1.265625 -0.3125 C 2.566406 -0.3125 4.273438 -0.984375 6.390625 -2.328125 C 6.878906 -2.597656 7.46875 -2.976562 8.15625 -3.46875 C 8.851562 -3.96875 9.679688 -4.585938 10.640625 -5.328125 C 10.703125 -5.347656 10.78125 -5.359375 10.875 -5.359375 C 10.9375 -5.359375 10.976562 -5.296875 11 -5.171875 Z M 2.421875 -3.8125 C 2.421875 -4.332031 2.148438 -4.59375 1.609375 -4.59375 C 1.484375 -4.59375 1.367188 -4.59375 1.265625 -4.59375 C 1.160156 -4.59375 1.078125 -4.570312 1.015625 -4.53125 C 0.210938 -3.863281 -0.523438 -3.257812 -1.203125 -2.71875 C -1.890625 -2.1875 -2.53125 -1.710938 -3.125 -1.296875 C -3.019531 -1.296875 -2.921875 -1.273438 -2.828125 -1.234375 C -2.117188 -0.785156 -1.515625 -0.539062 -1.015625 -0.5 C -0.566406 -0.5 -0.132812 -0.597656 0.28125 -0.796875 C 0.695312 -1.003906 1.085938 -1.328125 1.453125 -1.765625 C 1.765625 -2.117188 1.992188 -2.457031 2.140625 -2.78125 C 2.285156 -3.113281 2.378906 -3.457031 2.421875 -3.8125 Z M 2.421875 -3.8125 "/></g></g></g><g fill="#1a2332" fill-opacity="1"><g transform="translate(273.297145, 195.749987)"><g/></g></g><g fill="#1a2332" fill-opacity="1"><g transform="translate(280.794146, 195.749987)"><g><path class="hero-signature-path" fill="none" stroke="#1a2332" stroke-width="1.4" stroke-linecap="round" stroke-linejoin="round" d="M 7.28125 -11.5 C 7.28125 -11.476562 5.0625 -8.9375 0.625 -3.875 C 1.03125 -4.082031 1.429688 -4.289062 1.828125 -4.5 C 2.222656 -4.707031 2.632812 -4.929688 3.0625 -5.171875 C 4.0625 -5.609375 4.972656 -5.835938 5.796875 -5.859375 C 6.679688 -5.859375 7.15625 -5.46875 7.21875 -4.6875 C 7.21875 -4.1875 6.796875 -3.484375 5.953125 -2.578125 C 5.554688 -2.160156 5.113281 -1.773438 4.625 -1.421875 C 4.144531 -1.078125 3.601562 -0.726562 3 -0.375 C 1.78125 0.25 0.800781 0.570312 0.0625 0.59375 C -0.101562 0.59375 -0.238281 0.5625 -0.34375 0.5 C -0.445312 0.4375 -0.550781 0.351562 -0.65625 0.25 C -0.84375 0.0625 -0.9375 -0.175781 -0.9375 -0.46875 C -0.9375 -1.0625 -0.738281 -1.378906 -0.34375 -1.421875 C -0.132812 -1.421875 0 -1.359375 0.0625 -1.234375 C 0.125 -1.148438 0.207031 -1 0.3125 -0.78125 C 0.457031 -0.46875 0.785156 -0.3125 1.296875 -0.3125 C 1.941406 -0.3125 2.863281 -0.816406 4.0625 -1.828125 C 5.28125 -2.773438 5.890625 -3.613281 5.890625 -4.34375 C 5.890625 -4.675781 5.507812 -4.878906 4.75 -4.953125 C 4.039062 -4.953125 3.316406 -4.71875 2.578125 -4.25 C 2.285156 -4.0625 1.847656 -3.734375 1.265625 -3.265625 C 0.691406 -2.804688 -0.0195312 -2.210938 -0.875 -1.484375 C -1.96875 -0.554688 -3.09375 0.539062 -4.25 1.8125 C -5.40625 3.082031 -6.613281 4.554688 -7.875 6.234375 C -10.019531 9.210938 -11.1875 11.125 -11.375 11.96875 L -11.375 13.109375 C -11.375 13.398438 -11.476562 13.609375 -11.6875 13.734375 C -11.851562 13.859375 -12.050781 13.941406 -12.28125 13.984375 C -12.40625 13.984375 -12.523438 13.972656 -12.640625 13.953125 C -12.765625 13.929688 -12.878906 13.878906 -12.984375 13.796875 C -13.191406 13.691406 -13.328125 13.515625 -13.390625 13.265625 C -13.390625 12.878906 -13.253906 12.539062 -12.984375 12.25 C -12.742188 11.832031 -12.554688 11.523438 -12.421875 11.328125 C -12.285156 11.128906 -12.207031 11.007812 -12.1875 10.96875 C -11.519531 9.726562 -10.546875 8.253906 -9.265625 6.546875 C -7.984375 4.847656 -6.382812 2.882812 -4.46875 0.65625 C -3.570312 -0.40625 -2.234375 -1.9375 -0.453125 -3.9375 C 1.316406 -5.9375 3.578125 -8.425781 6.328125 -11.40625 C 6.597656 -11.675781 6.832031 -11.820312 7.03125 -11.84375 C 7.132812 -11.84375 7.21875 -11.726562 7.28125 -11.5 Z M 7.28125 -11.5 "/></g></g></g><g fill="#1a2332" fill-opacity="1"><g transform="translate(292.638162, 195.749987)"><g><path class="hero-signature-path" fill="none" stroke="#1a2332" stroke-width="1.4" stroke-linecap="round" stroke-linejoin="round" d="M 14.421875 -20 C 14.421875 -18.21875 12.878906 -15.65625 9.796875 -12.3125 C 7.867188 -10.257812 5.695312 -8.210938 3.28125 -6.171875 C 2.476562 -5.546875 1.617188 -4.875 0.703125 -4.15625 C -0.203125 -3.445312 -1.210938 -2.691406 -2.328125 -1.890625 C -2.304688 -1.453125 -1.953125 -1.039062 -1.265625 -0.65625 C -0.648438 -0.320312 0.0625 -0.15625 0.875 -0.15625 C 2.4375 -0.15625 4.253906 -0.835938 6.328125 -2.203125 L 10.453125 -5.296875 C 10.515625 -5.335938 10.597656 -5.359375 10.703125 -5.359375 C 10.765625 -5.359375 10.796875 -5.296875 10.796875 -5.171875 C 10.796875 -5.023438 10.765625 -4.90625 10.703125 -4.8125 C 9.765625 -4.039062 8.914062 -3.363281 8.15625 -2.78125 C 7.40625 -2.207031 6.722656 -1.734375 6.109375 -1.359375 C 3.921875 -0.0351562 1.988281 0.632812 0.3125 0.65625 C -2.539062 0.65625 -3.988281 -0.460938 -4.03125 -2.703125 C -4.03125 -4.679688 -2.976562 -7.265625 -0.875 -10.453125 C 1.132812 -13.421875 3.441406 -16.003906 6.046875 -18.203125 C 8.753906 -20.535156 10.957031 -21.703125 12.65625 -21.703125 C 13.164062 -21.703125 13.585938 -21.535156 13.921875 -21.203125 C 14.253906 -20.890625 14.421875 -20.488281 14.421875 -20 Z M 12.984375 -19.65625 C 12.984375 -20.5 12.445312 -20.878906 11.375 -20.796875 C 10.78125 -20.753906 10.0625 -20.484375 9.21875 -19.984375 C 8.382812 -19.492188 7.398438 -18.742188 6.265625 -17.734375 C 5.128906 -16.785156 4.101562 -15.8125 3.1875 -14.8125 C 2.28125 -13.820312 1.457031 -12.789062 0.71875 -11.71875 C -0.238281 -10.3125 -1.046875 -8.726562 -1.703125 -6.96875 C -2.222656 -5.507812 -2.515625 -4.3125 -2.578125 -3.375 C -2.578125 -3.101562 -2.523438 -2.878906 -2.421875 -2.703125 C -1.859375 -2.984375 -0.617188 -3.890625 1.296875 -5.421875 C 3.554688 -7.285156 5.632812 -9.144531 7.53125 -11 C 9.351562 -12.78125 10.644531 -14.238281 11.40625 -15.375 C 12.457031 -16.90625 12.984375 -18.332031 12.984375 -19.65625 Z M 12.984375 -19.65625 "/></g></g></g><g fill="#1a2332" fill-opacity="1"><g transform="translate(302.088189, 195.749987)"><g><path class="hero-signature-path" fill="none" stroke="#1a2332" stroke-width="1.4" stroke-linecap="round" stroke-linejoin="round" d="M 14.328125 -5.203125 C 14.328125 -5.035156 14.285156 -4.914062 14.203125 -4.84375 C 13.128906 -3.925781 12.210938 -3.164062 11.453125 -2.5625 C 10.703125 -1.96875 10.109375 -1.523438 9.671875 -1.234375 C 8.597656 -0.515625 7.628906 0.0234375 6.765625 0.390625 C 5.910156 0.753906 5.132812 0.9375 4.4375 0.9375 C 3.300781 0.9375 2.703125 0.0859375 2.640625 -1.609375 C 2.140625 -1.179688 1.414062 -0.726562 0.46875 -0.25 C -0.425781 0.226562 -1.179688 0.46875 -1.796875 0.46875 C -2.210938 0.46875 -2.601562 0.363281 -2.96875 0.15625 C -3.320312 -0.0078125 -3.5 -0.257812 -3.5 -0.59375 C -3.5 -1.539062 -2.644531 -2.675781 -0.9375 -4 C -0.0625 -4.65625 0.742188 -5.148438 1.484375 -5.484375 C 2.234375 -5.816406 2.9375 -5.984375 3.59375 -5.984375 C 4.363281 -5.984375 4.757812 -5.796875 4.78125 -5.421875 C 4.78125 -4.992188 4.65625 -4.6875 4.40625 -4.5 C 4.15625 -4.3125 3.882812 -4.21875 3.59375 -4.21875 C 3.59375 -4.238281 3.582031 -4.28125 3.5625 -4.34375 C 3.539062 -4.382812 3.519531 -4.429688 3.5 -4.484375 C 3.476562 -4.535156 3.445312 -4.601562 3.40625 -4.6875 C 3.28125 -4.988281 3.023438 -5.160156 2.640625 -5.203125 C 1.804688 -5.203125 0.863281 -4.738281 -0.1875 -3.8125 C -1.257812 -2.925781 -1.796875 -2.128906 -1.796875 -1.421875 C -1.796875 -0.972656 -1.640625 -0.738281 -1.328125 -0.71875 C -0.210938 -0.71875 0.972656 -1.148438 2.234375 -2.015625 C 2.503906 -2.203125 2.976562 -2.664062 3.65625 -3.40625 C 4.070312 -3.925781 4.425781 -4.164062 4.71875 -4.125 C 5 -4.125 5.140625 -4.019531 5.140625 -3.8125 C 5.140625 -3.625 4.957031 -3.210938 4.59375 -2.578125 C 4.257812 -1.992188 4.09375 -1.566406 4.09375 -1.296875 C 4.09375 -0.515625 4.484375 -0.113281 5.265625 -0.09375 C 6.203125 -0.09375 7.710938 -0.804688 9.796875 -2.234375 C 10.066406 -2.398438 10.546875 -2.734375 11.234375 -3.234375 C 11.929688 -3.742188 12.859375 -4.429688 14.015625 -5.296875 C 14.054688 -5.335938 14.117188 -5.359375 14.203125 -5.359375 C 14.285156 -5.359375 14.328125 -5.304688 14.328125 -5.203125 Z M 14.328125 -5.203125 "/></g></g></g><g fill="#1a2332" fill-opacity="1"><g transform="translate(315.034706, 195.749987)"><g><path class="hero-signature-path" fill="none" stroke="#1a2332" stroke-width="1.4" stroke-linecap="round" stroke-linejoin="round" d="M 9.109375 -5.171875 C 9.109375 -5.046875 9.054688 -4.9375 8.953125 -4.84375 C 7.816406 -3.863281 6.898438 -3.085938 6.203125 -2.515625 C 5.515625 -1.953125 5.007812 -1.566406 4.6875 -1.359375 C 2.84375 0.00390625 1.4375 0.6875 0.46875 0.6875 C -0.113281 0.6875 -0.671875 0.507812 -1.203125 0.15625 C -1.679688 -0.175781 -1.941406 -0.597656 -1.984375 -1.109375 C -1.984375 -1.878906 -1.570312 -2.789062 -0.75 -3.84375 C -0.0195312 -4.8125 0.628906 -5.359375 1.203125 -5.484375 C 1.472656 -5.484375 1.609375 -5.390625 1.609375 -5.203125 C 1.609375 -5.035156 1.269531 -4.570312 0.59375 -3.8125 C 0.0078125 -3.050781 -0.300781 -2.335938 -0.34375 -1.671875 C -0.34375 -0.828125 0.0390625 -0.394531 0.8125 -0.375 C 1.695312 -0.375 4.34375 -2.015625 8.75 -5.296875 C 8.789062 -5.335938 8.859375 -5.359375 8.953125 -5.359375 C 9.015625 -5.359375 9.066406 -5.296875 9.109375 -5.171875 Z M 5.953125 -8.1875 C 5.953125 -8.019531 5.898438 -7.867188 5.796875 -7.734375 C 5.703125 -7.597656 5.601562 -7.53125 5.5 -7.53125 C 5.351562 -7.53125 5.179688 -7.632812 4.984375 -7.84375 C 4.785156 -8.050781 4.476562 -8.363281 4.0625 -8.78125 C 3.320312 -9.539062 2.765625 -9.921875 2.390625 -9.921875 C 2.179688 -9.921875 1.894531 -9.828125 1.53125 -9.640625 C 1.175781 -9.460938 0.789062 -9.195312 0.375 -8.84375 C -0.0078125 -8.53125 -0.34375 -8.238281 -0.625 -7.96875 C -0.90625 -7.695312 -1.109375 -7.5625 -1.234375 -7.5625 C -1.398438 -7.5625 -1.484375 -7.585938 -1.484375 -7.640625 C -1.484375 -7.691406 -1.484375 -7.789062 -1.484375 -7.9375 C -1.484375 -8.039062 -1.285156 -8.253906 -0.890625 -8.578125 C -0.492188 -8.898438 0.0078125 -9.304688 0.625 -9.796875 C 0.9375 -10.046875 1.304688 -10.296875 1.734375 -10.546875 C 2.171875 -10.796875 2.566406 -10.921875 2.921875 -10.921875 C 3.148438 -10.921875 3.410156 -10.828125 3.703125 -10.640625 C 4.003906 -10.453125 4.394531 -10.140625 4.875 -9.703125 C 5.394531 -9.210938 5.703125 -8.859375 5.796875 -8.640625 C 5.898438 -8.421875 5.953125 -8.269531 5.953125 -8.1875 Z M 5.953125 -8.1875 "/></g></g></g><g fill="#1a2332" fill-opacity="1"><g transform="translate(322.752189, 195.749987)"><g><path class="hero-signature-path" fill="none" stroke="#1a2332" stroke-width="1.4" stroke-linecap="round" stroke-linejoin="round" d="M 17.140625 -12.0625 C 17.140625 -11.644531 16.71875 -11.40625 15.875 -11.34375 L 7.71875 -11.34375 L 3.125 -6.453125 C 1 -4.015625 -0.0625 -2.285156 -0.0625 -1.265625 C -0.0625 -0.585938 0.390625 -0.25 1.296875 -0.25 C 2.453125 -0.25 4.023438 -0.921875 6.015625 -2.265625 C 6.691406 -2.753906 7.359375 -3.242188 8.015625 -3.734375 C 8.679688 -4.222656 9.359375 -4.742188 10.046875 -5.296875 C 10.066406 -5.335938 10.128906 -5.359375 10.234375 -5.359375 C 10.296875 -5.359375 10.335938 -5.285156 10.359375 -5.140625 C 10.359375 -5.015625 10.316406 -4.894531 10.234375 -4.78125 C 9.140625 -3.90625 8.21875 -3.164062 7.46875 -2.5625 C 6.726562 -1.96875 6.128906 -1.515625 5.671875 -1.203125 C 3.585938 0.222656 1.84375 0.945312 0.4375 0.96875 C -0.0625 0.96875 -0.46875 0.78125 -0.78125 0.40625 C -1.125 0.0078125 -1.296875 -0.460938 -1.296875 -1.015625 C -1.296875 -2.265625 -0.234375 -4.085938 1.890625 -6.484375 C 2.671875 -7.285156 3.4375 -8.082031 4.1875 -8.875 C 4.945312 -9.675781 5.710938 -10.5 6.484375 -11.34375 L -4.875 -11.59375 C -5.15625 -11.59375 -5.265625 -11.78125 -5.203125 -12.15625 C -5.179688 -12.300781 -4.957031 -12.394531 -4.53125 -12.4375 L 7.59375 -12.4375 L 10.421875 -15.21875 C 10.503906 -15.257812 10.601562 -15.300781 10.71875 -15.34375 C 10.84375 -15.382812 11.007812 -15.414062 11.21875 -15.4375 C 11.320312 -15.4375 11.425781 -15.363281 11.53125 -15.21875 C 11.59375 -15.09375 11.59375 -14.976562 11.53125 -14.875 L 8.75 -12.4375 Z M 17.140625 -12.0625 "/></g></g></g></svg>